HIERARCHY
ROOT Hips
{
	OFFSET -0.001795 -0.223333 0.028219
	CHANNELS 6 Xposition Yposition Zposition Zrotation Yrotation Xrotation 
	JOINT LeftUpLeg
	{
		OFFSET 0.069520 -0.091406 -0.006815
		CHANNELS 3 Zrotation Yrotation Xrotation
		JOINT LeftLeg
		{
			OFFSET 0.034277 -0.375199 -0.004496
			CHANNELS 3 Zrotation Yrotation Xrotation
			JOINT LeftFoot
			{
				OFFSET -0.013596 -0.397961 -0.043693
				CHANNELS 3 Zrotation Yrotation Xrotation
				JOINT LeftToe
				{
					OFFSET 0.026358 -0.055791 0.119288
					CHANNELS 3 Zrotation Yrotation Xrotation
					End Site
					{
						OFFSET 0.000000 0.000000 0.000000
					}
				}
			}
		}
	}
	JOINT RightUpLeg
	{
		OFFSET -0.067670 -0.090522 -0.004320
		CHANNELS 3 Zrotation Yrotation Xrotation
		JOINT RightLeg
		{
			OFFSET -0.038290 -0.382569 -0.008850
			CHANNELS 3 Zrotation Yrotation Xrotation
			JOINT RightFoot
			{
				OFFSET 0.015774 -0.398415 -0.042312
				CHANNELS 3 Zrotation Yrotation Xrotation
				JOINT RightToe
				{
					OFFSET -0.025372 -0.048144 0.123348
					CHANNELS 3 Zrotation Yrotation Xrotation
					End Site
					{
						OFFSET 0.000000 0.000000 0.000000
					}
				}
			}
		}
	}
	JOINT Spine
	{
		OFFSET -0.002533 0.108963 -0.026696
		CHANNELS 3 Zrotation Yrotation Xrotation
		JOINT Spine1
		{
			OFFSET 0.005487 0.135180 0.001092
			CHANNELS 3 Zrotation Yrotation Xrotation
			JOINT Spine2
			{
				OFFSET 0.001457 0.052922 0.025425
				CHANNELS 3 Zrotation Yrotation Xrotation
				JOINT Neck
				{
					OFFSET -0.002778 0.213870 -0.042857
					CHANNELS 3 Zrotation Yrotation Xrotation
					JOINT Head
					{
						OFFSET 0.005152 0.064970 0.051349
						CHANNELS 3 Zrotation Yrotation Xrotation
						End Site
						{
							OFFSET 0.000000 0.000000 0.000000
						}
					}
				}
				JOINT LeftShoulder
				{
					OFFSET 0.078845 0.121749 -0.034090
					CHANNELS 3 Zrotation Yrotation Xrotation
					JOINT LeftArm
					{
						OFFSET 0.090977 0.030469 -0.008868
						CHANNELS 3 Zrotation Yrotation Xrotation
						JOINT LeftForeArm
						{
							OFFSET 0.259612 -0.012772 -0.027456
							CHANNELS 3 Zrotation Yrotation Xrotation
							JOINT LeftHand
							{
								OFFSET 0.249234 0.008986 -0.001171
								CHANNELS 3 Zrotation Yrotation Xrotation
								End Site
								{
									OFFSET 0.000000 0.000000 0.000000
								}
							}
						}
					}
				}
				JOINT RightShoulder
				{
					OFFSET -0.081759 0.118833 -0.038615
					CHANNELS 3 Zrotation Yrotation Xrotation
					JOINT RightArm
					{
						OFFSET -0.096012 0.032551 -0.009143
						CHANNELS 3 Zrotation Yrotation Xrotation
						JOINT RightForeArm
						{
							OFFSET -0.253742 -0.013329 -0.021401
							CHANNELS 3 Zrotation Yrotation Xrotation
							JOINT RightHand
							{
								OFFSET -0.255298 0.007772 -0.005559
								CHANNELS 3 Zrotation Yrotation Xrotation
								End Site
								{
									OFFSET 0.000000 0.000000 0.000000
								}
							}
						}
					}
				}
			}
		}
	}
}
MOTION
Frames: 18
Frame Time: 0.050000
0.113605 0.945017 0.899124 -0.120466 0.329514 4.690904 5.603249 -0.010700 2.937910 -4.808509 0.420311 -11.394382 7.033187 16.000387 13.743405 0.000000 0.000000 0.000000 -3.824114 0.085739 0.629516 2.661712 -0.411103 -8.016248 -5.200407 -15.051891 15.748785 0.000000 0.000000 0.000000 -3.723208 0.074732 1.279741 5.629599 -0.813133 -22.814691 -0.736056 -1.563644 29.175741 0.445689 1.807283 -38.528447 0.000000 0.000000 0.000000 -35.484874 5.093276 -5.765359 -45.667275 3.222759 -8.746979 -30.824311 -54.881404 20.279994 0.000000 0.000000 0.000000 28.921759 5.110874 1.027206 48.639237 -2.567018 -7.750938 5.785612 36.334251 3.466553 0.000000 0.000000 0.000000 
0.113190 0.944782 0.899603 -0.073297 0.814111 4.660242 5.695372 -0.023088 2.924647 -4.711920 0.409965 -11.338576 6.971322 15.962220 13.949510 0.000000 0.000000 0.000000 -3.843855 0.069182 0.822132 2.835886 -0.422349 -8.028763 -5.524905 -15.552928 15.905106 0.000000 0.000000 0.000000 -3.608235 0.070082 1.206274 5.548319 -0.789885 -22.762035 -0.759778 -1.557939 29.136172 0.788121 1.698720 -38.427254 0.000000 0.000000 0.000000 -35.076732 4.886837 -5.706527 -45.310259 3.066219 -8.579803 -33.714354 -56.278031 22.471523 0.000000 0.000000 0.000000 28.990994 5.248127 1.265570 48.704221 -2.030335 -7.603828 5.137475 34.583634 3.104038 0.000000 0.000000 0.000000 
0.112945 0.944447 0.899859 0.003488 1.173396 4.628926 5.755360 -0.027859 3.013768 -4.796068 0.402406 -11.437098 6.892999 15.888624 14.104309 0.000000 0.000000 0.000000 -4.015171 0.062567 0.969547 3.019111 -0.433311 -8.054646 -5.577915 -15.592197 15.819980 0.000000 0.000000 0.000000 -3.583837 0.069339 1.082818 5.593193 -0.796475 -22.771337 -0.757014 -1.594860 29.127834 0.891850 1.673050 -38.260530 0.000000 0.000000 0.000000 -34.426868 4.934842 -5.730194 -45.340125 3.059188 -8.557067 -36.626751 -57.852862 24.939071 0.000000 0.000000 0.000000 28.940960 5.459348 1.497841 48.803525 -1.696639 -7.515912 4.681968 33.491330 2.869977 0.000000 0.000000 0.000000 
0.112872 0.943948 0.899752 0.096070 1.643103 4.456923 5.785792 -0.037763 2.939821 -4.936082 0.395064 -11.237674 6.886210 15.899274 13.959235 0.000000 0.000000 0.000000 -4.076413 0.048662 1.123986 3.143211 -0.441630 -7.922679 -6.066472 -16.369152 15.894520 0.000000 0.000000 0.000000 -3.651155 0.068850 1.055196 5.704915 -0.839988 -22.486775 -0.783243 -1.749307 28.914842 1.091984 1.605516 -38.184842 0.000000 0.000000 0.000000 -34.056607 4.662271 -5.549097 -45.209776 2.755599 -8.395906 -38.260689 -59.414116 26.703559 0.000000 0.000000 0.000000 28.832529 5.625807 1.671791 48.460123 -1.373578 -7.346142 4.636658 32.983854 2.803639 0.000000 0.000000 0.000000 
0.113034 0.943512 0.899284 0.220807 1.916789 4.479003 5.812084 -0.046453 2.866992 -5.088457 0.390187 -11.244283 6.763628 15.742433 13.982294 0.000000 0.000000 0.000000 -4.237526 0.054944 1.086472 3.177028 -0.443575 -7.759006 -6.181026 -16.515692 15.624823 0.000000 0.000000 0.000000 -3.648036 0.069354 0.947802 5.839341 -0.885097 -22.281088 -0.867882 -1.818202 28.768175 1.153736 1.587768 -38.053020 0.000000 0.000000 0.000000 -33.750197 4.459575 -5.405122 -45.207574 2.383968 -8.246610 -38.227517 -60.619230 27.285537 0.000000 0.000000 0.000000 28.743187 5.854164 1.865968 48.482382 -1.114065 -7.247913 4.698130 32.835102 2.806453 0.000000 0.000000 0.000000 
0.113413 0.943066 0.898413 0.281395 2.016753 4.544622 5.771648 -0.052569 2.715166 -5.082379 0.390687 -11.045401 6.863352 15.870926 13.723193 0.000000 0.000000 0.000000 -4.293143 0.081542 0.703405 3.249701 -0.440785 -7.261778 -6.495019 -17.023450 15.355933 0.000000 0.000000 0.000000 -3.641457 0.071550 0.751462 6.124689 -0.979988 -21.975432 -0.954963 -1.915870 28.516584 1.677424 1.357871 -38.048179 0.000000 0.000000 0.000000 -33.554977 4.173884 -5.155845 -45.457743 1.973683 -8.138822 -37.205505 -61.615451 27.161898 0.000000 0.000000 0.000000 28.567493 5.929650 1.890757 48.430873 -0.823222 -7.099911 5.340140 33.067486 2.999713 0.000000 0.000000 0.000000 
0.113995 0.942784 0.897332 0.339280 2.091942 4.504524 5.750582 -0.055209 2.635645 -5.167571 0.389434 -11.060542 6.869112 15.890236 13.772795 0.000000 0.000000 0.000000 -4.327035 0.094698 0.502140 3.187223 -0.435404 -7.047987 -6.574468 -17.144792 15.260608 0.000000 0.000000 0.000000 -3.541086 0.067758 0.819454 6.290603 -1.036915 -21.785508 -1.127775 -2.028446 28.285155 1.949771 1.235361 -38.099447 0.000000 0.000000 0.000000 -33.797109 3.781107 -4.882260 -45.433146 1.236467 -7.878200 -34.293873 -61.950519 25.434692 0.000000 0.000000 0.000000 28.622062 6.121215 1.973993 48.220251 -0.747999 -7.011165 5.905693 33.968936 3.247804 0.000000 0.000000 0.000000 
0.114646 0.942894 0.896338 0.372078 2.205717 4.506559 5.701741 -0.057373 2.561965 -5.096808 0.388783 -10.907333 6.853944 15.873159 13.740944 0.000000 0.000000 0.000000 -4.374523 0.110404 0.263542 3.280728 -0.437686 -6.794643 -6.822325 -17.544853 14.954645 0.000000 0.000000 0.000000 -3.619716 0.069216 0.888464 6.578202 -1.125273 -21.602353 -1.247862 -2.246046 27.842320 2.400629 1.042252 -38.318800 0.000000 0.000000 0.000000 -34.001640 3.330234 -4.531565 -45.553454 0.316382 -7.568813 -30.677640 -62.480453 23.359542 0.000000 0.000000 0.000000 28.656110 6.231186 1.963109 47.704825 -0.675891 -6.852196 7.101614 35.478382 3.757923 0.000000 0.000000 0.000000 
0.115245 0.943205 0.895727 0.277638 2.163397 4.398434 5.670348 -0.049347 2.682722 -4.966235 0.384894 -11.203974 6.932666 16.028644 14.167916 0.000000 0.000000 0.000000 -4.321330 0.105305 0.309110 3.227341 -0.435266 -6.835637 -6.735963 -17.406986 15.092290 0.000000 0.000000 0.000000 -3.510683 0.063270 1.077303 6.835640 -1.191834 -21.638864 -1.419758 -2.520207 27.654432 2.449174 0.980173 -38.306752 0.000000 0.000000 0.000000 -34.323996 3.438004 -4.518906 -45.685476 -0.278108 -7.414792 -28.411896 -63.574702 22.452233 0.000000 0.000000 0.000000 28.622557 6.490155 1.994300 47.149043 -0.719111 -6.736591 7.917736 37.350086 4.219184 0.000000 0.000000 0.000000 
0.115693 0.943473 0.895490 0.187047 2.113465 4.220942 5.704640 -0.040718 2.878587 -4.809783 0.384105 -11.312011 6.955038 16.068342 14.279471 0.000000 0.000000 0.000000 -4.281287 0.088286 0.532887 3.242054 -0.436234 -6.858289 -6.928412 -17.740427 14.979233 0.000000 0.000000 0.000000 -3.468389 0.059760 1.122168 6.963027 -1.232449 -21.583210 -1.409267 -2.579315 27.441154 2.865682 0.795903 -38.373979 0.000000 0.000000 0.000000 -34.531060 3.063626 -4.227957 -45.547382 -1.286691 -7.050313 -26.634017 -65.525165 22.121035 0.000000 0.000000 0.000000 28.602487 6.521330 1.965263 46.160891 -0.918184 -6.638842 9.278773 39.477915 4.944957 0.000000 0.000000 0.000000 
0.115998 0.943703 0.895371 0.071836 2.184395 4.085916 5.789800 -0.037088 3.087102 -4.596865 0.379920 -11.506847 6.925887 16.078714 14.772302 0.000000 0.000000 0.000000 -4.221395 0.077052 0.646231 3.210313 -0.434681 -6.810803 -7.015875 -17.882241 14.998000 0.000000 0.000000 0.000000 -3.576346 0.060052 1.251795 6.978986 -1.207492 -21.928355 -1.411954 -2.830813 27.576471 2.823075 0.790939 -38.498439 0.000000 0.000000 0.000000 -34.546993 3.155891 -4.187231 -45.366302 -2.823907 -6.546680 -27.060224 -68.570246 23.814509 0.000000 0.000000 0.000000 28.269393 6.509829 1.888266 45.758673 -0.572822 -6.458511 9.151198 41.439644 5.170933 0.000000 0.000000 0.000000 
0.116325 0.943921 0.895082 -0.097011 2.349243 3.991287 6.082000 -0.044772 3.387602 -4.632462 0.370779 -12.012344 6.906751 16.101799 15.182311 0.000000 0.000000 0.000000 -4.020228 0.064393 0.701657 3.101394 -0.430773 -6.798718 -7.228248 -18.233099 15.274800 0.000000 0.000000 0.000000 -3.729246 0.064154 1.131567 7.190844 -1.278939 -21.732399 -1.527931 -2.726363 27.281328 3.039843 0.733428 -38.454940 0.000000 0.000000 0.000000 -34.266465 2.570418 -3.837183 -44.636886 -5.618742 -5.449823 -26.465564 -72.429533 24.985260 0.000000 0.000000 0.000000 28.305597 6.947997 2.256328 44.567264 0.123291 -6.057582 8.069677 43.858866 5.105360 0.000000 0.000000 0.000000 
0.116824 0.943982 0.894577 -0.156189 2.297186 3.785812 6.054841 -0.034879 3.521038 -4.479780 0.373335 -11.938268 6.890887 16.102367 15.452204 0.000000 0.000000 0.000000 -4.062467 0.060736 0.754109 3.074910 -0.427188 -6.668763 -7.316796 -18.392908 15.563346 0.000000 0.000000 0.000000 -3.952817 0.066369 1.411838 7.217971 -1.282685 -21.797568 -1.304822 -2.842873 27.081666 2.459598 0.972673 -38.569659 0.000000 0.000000 0.000000 -34.375075 1.769757 -3.189977 -43.320582 -9.182803 -4.152954 -20.283411 -76.408734 21.791233 0.000000 0.000000 0.000000 27.678676 7.583143 2.610537 43.485071 1.578341 -5.412119 5.459073 45.888376 4.271168 0.000000 0.000000 0.000000 
0.117566 0.944388 0.894064 -0.279147 2.466788 3.544698 6.163810 -0.035468 3.693833 -4.587634 0.367550 -12.096907 6.789616 15.986263 15.593734 0.000000 0.000000 0.000000 -3.981548 0.047247 0.856186 2.992905 -0.423975 -6.618119 -7.450854 -18.604115 15.750200 0.000000 0.000000 0.000000 -4.115256 0.066394 1.676542 7.469450 -1.353584 -21.742499 -1.324391 -2.839184 26.470248 2.098404 1.129823 -38.221729 0.000000 0.000000 0.000000 -34.276938 0.707583 -2.485249 -41.711844 -12.961196 -2.767034 -1.851881 -79.146028 7.345824 0.000000 0.000000 0.000000 27.425576 8.587648 3.288942 41.406014 3.262026 -4.615050 0.814438 47.961675 2.460714 0.000000 0.000000 0.000000 
0.118375 0.944602 0.893839 -0.298576 2.415284 3.325472 5.926373 -0.000272 4.172085 -4.278543 0.367045 -12.455886 6.756762 15.980399 16.042560 0.000000 0.000000 0.000000 -4.190969 0.035303 1.112137 3.131396 -0.434144 -6.824873 -7.391617 -18.513249 15.931684 0.000000 0.000000 0.000000 -4.150512 0.062705 2.070054 7.359678 -1.319986 -21.820268 -1.220518 -3.179143 26.224203 1.515377 1.329935 -38.225104 0.000000 0.000000 0.000000 -34.035122 -0.458024 -1.430909 -39.942018 -16.807412 -1.563745 26.586917 -78.006699 -15.828828 0.000000 0.000000 0.000000 26.647367 9.481443 3.695260 39.717488 5.826708 -3.631533 -4.394231 49.841591 0.153354 0.000000 0.000000 0.000000 
0.119068 0.944995 0.893907 -0.303505 2.249435 3.204480 5.839745 0.024072 4.560800 -4.242027 0.368231 -12.818432 6.574509 15.749511 16.443158 0.000000 0.000000 0.000000 -4.234280 0.030163 1.219730 3.112739 -0.429801 -6.695979 -7.321779 -18.414893 15.963574 0.000000 0.000000 0.000000 -4.028603 0.056151 2.249418 7.096796 -1.235863 -22.033884 -1.251499 -3.191093 26.082675 0.884709 1.572732 -38.002772 0.000000 0.000000 0.000000 -33.819675 -1.872566 -0.326168 -37.909772 -19.357459 -0.834415 42.514630 -74.611501 -27.389860 0.000000 0.000000 0.000000 26.128354 10.743546 4.433320 37.948732 8.352433 -2.768850 -10.807679 51.978922 -2.916126 0.000000 0.000000 0.000000 
0.119474 0.945466 0.894180 -0.358186 2.166917 3.076722 5.728129 0.050615 4.996830 -4.124229 0.368344 -13.226209 6.854021 16.191575 17.068294 0.000000 0.000000 0.000000 -4.182985 0.011349 1.470984 3.161503 -0.431581 -6.686357 -7.180564 -18.183026 15.624838 0.000000 0.000000 0.000000 -4.082843 0.055888 2.383629 7.154598 -1.252209 -22.049646 -1.467981 -3.473533 25.946429 0.777881 1.591707 -38.278463 0.000000 0.000000 0.000000 -33.419204 -2.731208 0.477436 -36.279110 -21.457161 -0.329068 47.987335 -69.776586 -29.122296 0.000000 0.000000 0.000000 25.277340 11.932247 5.016413 36.427861 11.131682 -1.900480 -17.590502 54.022282 -6.514428 0.000000 0.000000 0.000000 
0.119607 0.945742 0.894372 -0.428523 2.084440 3.063663 5.944271 0.045986 5.245832 -4.424625 0.364757 -13.408478 6.720935 16.043523 17.547219 0.000000 0.000000 0.000000 -4.167470 0.017202 1.384385 3.068640 -0.424107 -6.542780 -7.010125 -17.909500 15.736429 0.000000 0.000000 0.000000 -4.104432 0.055804 2.556753 7.068539 -1.217308 -22.206929 -1.664505 -3.611558 25.896246 0.495395 1.695056 -38.403316 0.000000 0.000000 0.000000 -33.124089 -3.770971 1.334695 -35.012589 -23.401835 0.106133 49.060402 -65.864933 -27.844905 0.000000 0.000000 0.000000 24.968410 13.319496 5.784336 34.794647 13.448984 -1.245021 -24.378381 55.256958 -10.274626 0.000000 0.000000 0.000000 
